<svg width="199" height="67" viewBox="0 0 199 67" fill="none" xmlns="http://www.w3.org/2000/svg">
<path d="M0.201705 30V0.90909H20.0597V6.61932H7.23295V12.5852H18.7955V18.3097H7.23295V30H0.201705ZM51.0575 15.4545C51.0575 18.6553 50.442 21.3684 49.2109 23.5938C47.9799 25.8191 46.3132 27.5095 44.2109 28.6648C42.1181 29.8201 39.7697 30.3977 37.1655 30.3977C34.5518 30.3977 32.1986 29.8153 30.1058 28.6506C28.013 27.4858 26.3511 25.7955 25.12 23.5795C23.8984 21.3542 23.2876 18.6458 23.2876 15.4545C23.2876 12.2538 23.8984 9.54072 25.12 7.31534C26.3511 5.08996 28.013 3.39962 30.1058 2.24432C32.1986 1.08901 34.5518 0.511363 37.1655 0.511363C39.7697 0.511363 42.1181 1.08901 44.2109 2.24432C46.3132 3.39962 47.9799 5.08996 49.2109 7.31534C50.442 9.54072 51.0575 12.2538 51.0575 15.4545ZM43.87 15.4545C43.87 13.5606 43.6001 11.9602 43.0604 10.6534C42.5301 9.34659 41.763 8.35701 40.7592 7.68466C39.7649 7.01231 38.567 6.67614 37.1655 6.67614C35.7734 6.67614 34.5755 7.01231 33.5717 7.68466C32.5679 8.35701 31.7962 9.34659 31.2564 10.6534C30.7261 11.9602 30.4609 13.5606 30.4609 15.4545C30.4609 17.3485 30.7261 18.9489 31.2564 20.2557C31.7962 21.5625 32.5679 22.5521 33.5717 23.2244C34.5755 23.8968 35.7734 24.233 37.1655 24.233C38.567 24.233 39.7649 23.8968 40.7592 23.2244C41.763 22.5521 42.5301 21.5625 43.0604 20.2557C43.6001 18.9489 43.87 17.3485 43.87 15.4545ZM82.62 15.4545C82.62 18.6553 82.0045 21.3684 80.7734 23.5938C79.5424 25.8191 77.8757 27.5095 75.7734 28.6648C73.6806 29.8201 71.3322 30.3977 68.728 30.3977C66.1143 30.3977 63.7611 29.8153 61.6683 28.6506C59.5755 27.4858 57.9136 25.7955 56.6825 23.5795C55.4609 21.3542 54.8501 18.6458 54.8501 15.4545C54.8501 12.2538 55.4609 9.54072 56.6825 7.31534C57.9136 5.08996 59.5755 3.39962 61.6683 2.24432C63.7611 1.08901 66.1143 0.511363 68.728 0.511363C71.3322 0.511363 73.6806 1.08901 75.7734 2.24432C77.8757 3.39962 79.5424 5.08996 80.7734 7.31534C82.0045 9.54072 82.62 12.2538 82.62 15.4545ZM75.4325 15.4545C75.4325 13.5606 75.1626 11.9602 74.6229 10.6534C74.0926 9.34659 73.3255 8.35701 72.3217 7.68466C71.3274 7.01231 70.1295 6.67614 68.728 6.67614C67.3359 6.67614 66.138 7.01231 65.1342 7.68466C64.1304 8.35701 63.3587 9.34659 62.8189 10.6534C62.2886 11.9602 62.0234 13.5606 62.0234 15.4545C62.0234 17.3485 62.2886 18.9489 62.8189 20.2557C63.3587 21.5625 64.1304 22.5521 65.1342 23.2244C66.138 23.8968 67.3359 24.233 68.728 24.233C70.1295 24.233 71.3274 23.8968 72.3217 23.2244C73.3255 22.5521 74.0926 21.5625 74.6229 20.2557C75.1626 18.9489 75.4325 17.3485 75.4325 15.4545ZM97.478 30H86.7251V0.90909H97.4638C100.428 0.90909 102.98 1.49148 105.12 2.65625C107.27 3.81155 108.927 5.47822 110.092 7.65625C111.256 9.82481 111.839 12.4195 111.839 15.4403C111.839 18.4706 111.256 21.0748 110.092 23.2528C108.936 25.4309 107.284 27.1023 105.134 28.267C102.985 29.4223 100.433 30 97.478 30ZM93.7564 24.0057H97.2081C98.8369 24.0057 100.215 23.7311 101.342 23.1818C102.478 22.6231 103.335 21.7188 103.913 20.4688C104.5 19.2093 104.793 17.5331 104.793 15.4403C104.793 13.3475 104.5 11.6809 103.913 10.4403C103.326 9.19034 102.459 8.29072 101.313 7.74148C100.177 7.18276 98.7753 6.90341 97.1087 6.90341H93.7564V24.0057ZM0.201705 66V36.9091H12.2188C14.3968 36.9091 16.2765 37.3352 17.858 38.1875C19.4489 39.0303 20.6752 40.2093 21.5369 41.7244C22.3987 43.2301 22.8295 44.982 22.8295 46.9801C22.8295 48.9877 22.3892 50.7443 21.5085 52.25C20.6373 53.7462 19.392 54.9062 17.7727 55.7301C16.1534 56.554 14.2311 56.9659 12.0057 56.9659H4.59091V51.4261H10.6989C11.7595 51.4261 12.6449 51.2415 13.3551 50.8722C14.0748 50.5028 14.6193 49.9867 14.9886 49.3239C15.358 48.6515 15.5426 47.8703 15.5426 46.9801C15.5426 46.0805 15.358 45.304 14.9886 44.6506C14.6193 43.9877 14.0748 43.4763 13.3551 43.1165C12.6354 42.7566 11.75 42.5767 10.6989 42.5767H7.23295V66H0.201705ZM29.0724 66H21.5156L31.331 36.9091H40.6918L50.5071 66H42.9503L36.1179 44.2386H35.8906L29.0724 66ZM28.0639 54.5511H43.8594V59.892H28.0639V54.5511ZM53.6392 66V36.9091H65.6562C67.8343 36.9091 69.714 37.3021 71.2955 38.0881C72.8864 38.8646 74.1127 39.982 74.9744 41.4403C75.8362 42.8892 76.267 44.608 76.267 46.5966C76.267 48.6136 75.8267 50.3277 74.946 51.7386C74.0653 53.1402 72.8153 54.2102 71.196 54.9489C69.5767 55.678 67.6591 56.0426 65.4432 56.0426H57.8438V50.5028H64.1364C65.197 50.5028 66.0824 50.3655 66.7926 50.0909C67.5123 49.8068 68.0568 49.3807 68.4261 48.8125C68.7955 48.2348 68.9801 47.4962 68.9801 46.5966C68.9801 45.697 68.7955 44.9536 68.4261 44.3665C68.0568 43.7699 67.5123 43.3248 66.7926 43.0312C66.0729 42.7282 65.1875 42.5767 64.1364 42.5767H60.6705V66H53.6392ZM70.017 52.7045L77.2614 66H69.5909L62.4886 52.7045H70.017ZM86.4162 66H78.8594L88.6747 36.9091H98.0355L107.851 66H100.294L93.4616 44.2386H93.2344L86.4162 66ZM85.4077 54.5511H101.203V59.892H85.4077V54.5511ZM121.736 66H110.983V36.9091H121.722C124.686 36.9091 127.238 37.4915 129.378 38.6562C131.527 39.8116 133.185 41.4782 134.349 43.6562C135.514 45.8248 136.097 48.4195 136.097 51.4403C136.097 54.4706 135.514 57.0748 134.349 59.2528C133.194 61.4309 131.542 63.1023 129.392 64.267C127.242 65.4223 124.69 66 121.736 66ZM118.014 60.0057H121.466C123.095 60.0057 124.473 59.7311 125.599 59.1818C126.736 58.6231 127.593 57.7188 128.17 56.4688C128.758 55.2093 129.051 53.5331 129.051 51.4403C129.051 49.3475 128.758 47.6809 128.17 46.4403C127.583 45.1903 126.717 44.2907 125.571 43.7415C124.435 43.1828 123.033 42.9034 121.366 42.9034H118.014V60.0057ZM147.233 36.9091V66H140.202V36.9091H147.233ZM167.371 45.6307C167.277 44.589 166.855 43.7794 166.107 43.2017C165.369 42.6146 164.313 42.321 162.94 42.321C162.031 42.321 161.273 42.4394 160.667 42.6761C160.061 42.9129 159.606 43.2396 159.303 43.6562C159 44.0634 158.844 44.5322 158.835 45.0625C158.816 45.4981 158.901 45.8816 159.09 46.2131C159.289 46.5445 159.573 46.8381 159.942 47.0938C160.321 47.34 160.776 47.5578 161.306 47.7472C161.836 47.9366 162.433 48.1023 163.096 48.2443L165.596 48.8125C167.035 49.125 168.304 49.5417 169.403 50.0625C170.511 50.5833 171.439 51.2036 172.187 51.9233C172.944 52.643 173.517 53.4716 173.906 54.4091C174.294 55.3466 174.493 56.3977 174.502 57.5625C174.493 59.3996 174.029 60.9763 173.11 62.2926C172.192 63.6089 170.871 64.6174 169.147 65.3182C167.433 66.0189 165.364 66.3693 162.94 66.3693C160.506 66.3693 158.385 66.0047 156.576 65.2756C154.767 64.5464 153.361 63.4384 152.357 61.9517C151.353 60.465 150.837 58.5852 150.809 56.3125H157.542C157.599 57.25 157.85 58.0312 158.295 58.6562C158.74 59.2812 159.351 59.7547 160.127 60.0767C160.913 60.3987 161.822 60.5597 162.854 60.5597C163.801 60.5597 164.606 60.4318 165.269 60.1761C165.942 59.9205 166.458 59.5653 166.817 59.1108C167.177 58.6562 167.362 58.1354 167.371 57.5483C167.362 56.9991 167.192 56.5303 166.86 56.142C166.529 55.7443 166.017 55.4034 165.326 55.1193C164.644 54.8258 163.773 54.5559 162.712 54.3097L159.673 53.5994C157.154 53.0218 155.17 52.089 153.721 50.8011C152.272 49.5038 151.552 47.7519 151.562 45.5455C151.552 43.7462 152.035 42.1695 153.011 40.8153C153.986 39.4612 155.335 38.4053 157.059 37.6477C158.782 36.8902 160.747 36.5114 162.954 36.5114C165.208 36.5114 167.163 36.8949 168.82 37.6619C170.487 38.4195 171.78 39.4848 172.698 40.858C173.617 42.2311 174.085 43.822 174.104 45.6307H167.371ZM178.053 66V36.9091H198.337V42.6193H185.085V48.5852H197.3V54.3097H185.085V60.2898H198.337V66H178.053Z" fill="white"/>
</svg>
